<svg id="visual" viewBox="0 0 920 300" width="920" height="300" xmlns="http://www.w3.org/2000/svg" xmlns:xlink="http://www.w3.org/1999/xlink" version="1.1"><rect x="0" y="0" width="920" height="300" fill="#021f35"></rect><path d="M0 223L131 221L263 180L394 223L526 195L657 211L789 198L920 194L920 301L789 301L657 301L526 301L394 301L263 301L131 301L0 301Z" fill="#f5730a"></path><path d="M0 217L131 229L263 226L394 207L526 214L657 230L789 228L920 212L920 301L789 301L657 301L526 301L394 301L263 301L131 301L0 301Z" fill="#da5b09"></path><path d="M0 226L131 251L263 246L394 245L526 230L657 223L789 234L920 235L920 301L789 301L657 301L526 301L394 301L263 301L131 301L0 301Z" fill="#be4407"></path><path d="M0 254L131 262L263 240L394 242L526 269L657 246L789 247L920 242L920 301L789 301L657 301L526 301L394 301L263 301L131 301L0 301Z" fill="#a32d04"></path><path d="M0 275L131 272L263 265L394 285L526 267L657 275L789 269L920 277L920 301L789 301L657 301L526 301L394 301L263 301L131 301L0 301Z" fill="#871400"></path></svg>