<svg id="visual" viewBox="0 0 1080 250" width="1080" height="250" xmlns="http://www.w3.org/2000/svg" xmlns:xlink="http://www.w3.org/1999/xlink" version="1.1"><rect x="0" y="0" width="1080" height="250" fill="#021f35"></rect><path d="M0 194L25.7 197.2C51.3 200.3 102.7 206.7 154.2 205C205.7 203.3 257.3 193.7 308.8 186.2C360.3 178.7 411.7 173.3 463 175.2C514.3 177 565.7 186 617 191.8C668.3 197.7 719.7 200.3 771.2 203.8C822.7 207.3 874.3 211.7 925.8 209.3C977.3 207 1028.7 198 1054.3 193.5L1080 189L1080 251L1054.3 251C1028.7 251 977.3 251 925.8 251C874.3 251 822.7 251 771.2 251C719.7 251 668.3 251 617 251C565.7 251 514.3 251 463 251C411.7 251 360.3 251 308.8 251C257.3 251 205.7 251 154.2 251C102.7 251 51.3 251 25.7 251L0 251Z" fill="#931C1C" stroke-linecap="round" stroke-linejoin="miter"></path></svg>