<svg id="visual" viewBox="0 0 1080 250" width="1080" height="250" xmlns="http://www.w3.org/2000/svg" xmlns:xlink="http://www.w3.org/1999/xlink" version="1.1"><rect x="0" y="0" width="1080" height="250" fill="#931C1C"></rect><path d="M0 148L154 166L309 153L463 149L617 165L771 145L926 184L1080 166L1080 251L926 251L771 251L617 251L463 251L309 251L154 251L0 251Z" fill="#f5730a"></path><path d="M0 175L154 181L309 164L463 171L617 188L771 188L926 168L1080 161L1080 251L926 251L771 251L617 251L463 251L309 251L154 251L0 251Z" fill="#df6009"></path><path d="M0 180L154 201L309 184L463 177L617 180L771 191L926 181L1080 205L1080 251L926 251L771 251L617 251L463 251L309 251L154 251L0 251Z" fill="#c94d08"></path><path d="M0 204L154 206L309 214L463 203L617 206L771 215L926 209L1080 198L1080 251L926 251L771 251L617 251L463 251L309 251L154 251L0 251Z" fill="#b33b06"></path><path d="M0 223L154 217L309 226L463 226L617 216L771 216L926 220L1080 208L1080 251L926 251L771 251L617 251L463 251L309 251L154 251L0 251Z" fill="#9d2804"></path><path d="M0 232L154 236L309 236L463 223L617 233L771 230L926 224L1080 224L1080 251L926 251L771 251L617 251L463 251L309 251L154 251L0 251Z" fill="#871400"></path></svg>