<svg id="visual" viewBox="0 0 1080 250" width="1080" height="250" xmlns="http://www.w3.org/2000/svg" xmlns:xlink="http://www.w3.org/1999/xlink" version="1.1"><rect x="0" y="0" width="1080" height="250" fill="#021f35"></rect><path d="M0 125L12.8 125.8C25.7 126.7 51.3 128.3 77 128.8C102.7 129.3 128.3 128.7 154 124.7C179.7 120.7 205.3 113.3 231.2 109.2C257 105 283 104 308.8 105.2C334.7 106.3 360.3 109.7 386 112.2C411.7 114.7 437.3 116.3 463 114.3C488.7 112.3 514.3 106.7 540 109.5C565.7 112.3 591.3 123.7 617 124.7C642.7 125.7 668.3 116.3 694 114C719.7 111.7 745.3 116.3 771.2 115C797 113.7 823 106.3 848.8 106C874.7 105.7 900.3 112.3 926 113.5C951.7 114.7 977.3 110.3 1003 108.5C1028.7 106.7 1054.3 107.3 1067.2 107.7L1080 108L1080 0L1067.2 0C1054.3 0 1028.7 0 1003 0C977.3 0 951.7 0 926 0C900.3 0 874.7 0 848.8 0C823 0 797 0 771.2 0C745.3 0 719.7 0 694 0C668.3 0 642.7 0 617 0C591.3 0 565.7 0 540 0C514.3 0 488.7 0 463 0C437.3 0 411.7 0 386 0C360.3 0 334.7 0 308.8 0C283 0 257 0 231.2 0C205.3 0 179.7 0 154 0C128.3 0 102.7 0 77 0C51.3 0 25.7 0 12.8 0L0 0Z" fill="#4058db"></path><path d="M0 93L12.8 92.2C25.7 91.3 51.3 89.7 77 88.5C102.7 87.3 128.3 86.7 154 86.2C179.7 85.7 205.3 85.3 231.2 85.3C257 85.3 283 85.7 308.8 83.7C334.7 81.7 360.3 77.3 386 76.2C411.7 75 437.3 77 463 81.5C488.7 86 514.3 93 540 96.7C565.7 100.3 591.3 100.7 617 102.2C642.7 103.7 668.3 106.3 694 101.8C719.7 97.3 745.3 85.7 771.2 79.5C797 73.3 823 72.7 848.8 72.5C874.7 72.3 900.3 72.7 926 76.2C951.7 79.7 977.3 86.3 1003 90.8C1028.7 95.3 1054.3 97.7 1067.2 98.8L1080 100L1080 0L1067.2 0C1054.3 0 1028.7 0 1003 0C977.3 0 951.7 0 926 0C900.3 0 874.7 0 848.8 0C823 0 797 0 771.2 0C745.3 0 719.7 0 694 0C668.3 0 642.7 0 617 0C591.3 0 565.7 0 540 0C514.3 0 488.7 0 463 0C437.3 0 411.7 0 386 0C360.3 0 334.7 0 308.8 0C283 0 257 0 231.2 0C205.3 0 179.7 0 154 0C128.3 0 102.7 0 77 0C51.3 0 25.7 0 12.8 0L0 0Z" fill="#2d48e1"></path><path d="M0 41L12.8 41.2C25.7 41.3 51.3 41.7 77 44C102.7 46.3 128.3 50.7 154 56.8C179.7 63 205.3 71 231.2 74.8C257 78.7 283 78.3 308.8 73.2C334.7 68 360.3 58 386 53.5C411.7 49 437.3 50 463 53.2C488.7 56.3 514.3 61.7 540 60.5C565.7 59.3 591.3 51.7 617 50.2C642.7 48.7 668.3 53.3 694 54.5C719.7 55.7 745.3 53.3 771.2 56.3C797 59.3 823 67.7 848.8 68.8C874.7 70 900.3 64 926 60C951.7 56 977.3 54 1003 52.5C1028.7 51 1054.3 50 1067.2 49.5L1080 49L1080 0L1067.2 0C1054.3 0 1028.7 0 1003 0C977.3 0 951.7 0 926 0C900.3 0 874.7 0 848.8 0C823 0 797 0 771.2 0C745.3 0 719.7 0 694 0C668.3 0 642.7 0 617 0C591.3 0 565.7 0 540 0C514.3 0 488.7 0 463 0C437.3 0 411.7 0 386 0C360.3 0 334.7 0 308.8 0C283 0 257 0 231.2 0C205.3 0 179.7 0 154 0C128.3 0 102.7 0 77 0C51.3 0 25.7 0 12.8 0L0 0Z" fill="#1935e5"></path><path d="M0 39L12.8 35.7C25.7 32.3 51.3 25.7 77 25.3C102.7 25 128.3 31 154 34C179.7 37 205.3 37 231.2 37.2C257 37.3 283 37.7 308.8 34.7C334.7 31.7 360.3 25.3 386 20.3C411.7 15.3 437.3 11.7 463 13.3C488.7 15 514.3 22 540 23.5C565.7 25 591.3 21 617 20.2C642.7 19.3 668.3 21.7 694 20.7C719.7 19.7 745.3 15.3 771.2 14.3C797 13.3 823 15.7 848.8 20.8C874.7 26 900.3 34 926 38.2C951.7 42.3 977.3 42.7 1003 42.3C1028.7 42 1054.3 41 1067.2 40.5L1080 40L1080 0L1067.2 0C1054.3 0 1028.7 0 1003 0C977.3 0 951.7 0 926 0C900.3 0 874.7 0 848.8 0C823 0 797 0 771.2 0C745.3 0 719.7 0 694 0C668.3 0 642.7 0 617 0C591.3 0 565.7 0 540 0C514.3 0 488.7 0 463 0C437.3 0 411.7 0 386 0C360.3 0 334.7 0 308.8 0C283 0 257 0 231.2 0C205.3 0 179.7 0 154 0C128.3 0 102.7 0 77 0C51.3 0 25.7 0 12.8 0L0 0Z" fill="#0418e8"></path></svg>